<?xml version="1.0" standalone="no"?>
<!DOCTYPE svg PUBLIC "-//W3C//DTD SVG 20010904//EN"
 "http://www.w3.org/TR/2001/REC-SVG-20010904/DTD/svg10.dtd">
<svg version="1.0" xmlns="http://www.w3.org/2000/svg"
 width="800.000000pt" height="800.000000pt" viewBox="0 0 800.000000 800.000000"
 preserveAspectRatio="xMidYMid meet">

<g transform="translate(0.000000,800.000000) scale(0.100000,-0.100000)"
fill="#000000" stroke="none">
<path d="M2817 7966 c15 -19 68 -78 117 -131 53 -56 85 -99 80 -105 -5 -4 -67
-25 -139 -45 -71 -21 -152 -48 -178 -62 -34 -17 -57 -22 -76 -18 -43 9 -157
-20 -316 -82 -49 -19 -92 -38 -95 -42 -3 -3 -34 -21 -69 -39 -130 -68 -373
-231 -431 -290 -18 -18 -69 -61 -114 -95 -125 -95 -367 -338 -465 -467 -106
-139 -313 -452 -354 -534 -16 -32 -58 -147 -93 -255 -35 -108 -70 -216 -78
-241 -44 -133 -94 -391 -107 -550 -6 -74 -13 -219 -16 -322 l-5 -188 -56 -26
c-31 -15 -80 -35 -111 -45 -30 -11 -79 -37 -108 -60 -41 -30 -61 -39 -78 -35
-17 4 -29 -1 -47 -20 -12 -15 -35 -40 -51 -56 -15 -16 -27 -40 -27 -54 0 -33
15 -30 30 6 17 40 76 107 86 97 5 -5 2 -12 -5 -17 -19 -11 10 -92 85 -242 30
-59 54 -113 54 -119 0 -6 14 -30 30 -54 17 -24 30 -47 30 -52 1 -18 116 -110
190 -151 30 -17 88 -40 129 -51 41 -11 76 -22 78 -24 10 -11 -29 -27 -79 -33
-104 -12 -337 79 -403 158 -14 16 -25 34 -25 39 0 5 -6 9 -13 9 -8 0 -44 30
-81 68 l-68 67 7 -90 c3 -51 19 -138 36 -199 21 -75 32 -138 35 -205 5 -128
10 -158 33 -187 l19 -24 5 33 c5 35 -21 147 -35 147 -4 0 -8 7 -8 16 0 9 5 12
12 8 8 -5 9 5 4 37 -13 90 -17 155 -7 133 18 -42 37 -39 32 5 -4 26 18 0 30
-37 6 -20 15 -41 19 -47 9 -13 50 -140 50 -157 0 -27 155 -171 307 -286 47
-35 50 -48 29 -114 -8 -24 -17 -56 -20 -73 -4 -16 -20 -43 -36 -60 -17 -16
-41 -45 -56 -62 -14 -18 -34 -33 -44 -33 -21 0 -22 -5 -40 -185 -13 -125 -39
-276 -119 -688 -23 -115 -41 -228 -41 -252 0 -23 -9 -101 -19 -171 -11 -71
-25 -192 -31 -269 -6 -77 -25 -237 -42 -355 -27 -184 -32 -244 -32 -415 -1
-232 16 -375 43 -375 16 0 16 6 3 88 -9 55 -15 167 -15 307 -1 216 4 262 48
505 3 14 12 102 20 195 35 397 45 463 116 815 23 113 49 252 59 310 13 74 28
123 52 167 45 86 63 83 92 -16 14 -46 16 -126 16 -555 0 -276 4 -557 10 -626
5 -69 14 -195 20 -280 16 -258 58 -594 100 -802 11 -53 20 -99 20 -102 0 -3 9
-6 21 -6 17 0 20 5 15 27 -3 16 -8 53 -11 83 -4 30 -13 80 -20 110 -21 87 -48
298 -49 380 0 41 8 111 18 155 10 44 24 109 33 144 8 36 18 124 23 195 8 116
14 145 53 256 24 69 49 152 56 185 7 33 24 106 37 163 25 101 28 168 9 166
-12 -2 -64 -149 -65 -184 0 -41 -46 -207 -136 -495 -24 -77 -44 -147 -44 -154
0 -10 -3 -12 -10 -5 -21 21 -32 234 -33 644 -1 234 2 559 7 722 l9 296 36 7
c19 4 48 13 63 21 37 19 75 18 88 -3 8 -13 13 -15 16 -5 5 12 55 42 70 42 3 0
3 -46 0 -102 -6 -96 1 -144 20 -126 6 7 24 79 26 108 0 8 6 42 13 75 l12 60
79 -2 c134 -4 148 -7 152 -25 2 -9 -5 -19 -17 -23 -29 -9 -33 -33 -21 -126
l10 -83 -39 -37 c-21 -21 -51 -64 -65 -96 -15 -32 -31 -66 -37 -76 -32 -57
-42 -652 -13 -764 8 -32 22 -68 30 -80 15 -24 53 -30 70 -13 11 11 85 -10 109
-30 7 -6 20 -8 29 -4 9 3 33 -1 55 -9 66 -27 153 -32 205 -12 74 28 79 21 71
-93 -13 -192 -5 -572 16 -745 15 -117 27 -110 37 20 4 48 12 88 17 90 10 3 51
-99 74 -187 16 -61 41 -241 58 -417 l5 -53 40 0 c21 0 37 4 34 8 -2 4 -19 74
-35 156 -37 177 -51 329 -58 661 -5 248 0 338 32 580 l14 100 -4 -160 c-6
-192 9 -531 30 -687 8 -62 26 -162 40 -223 27 -120 30 -154 16 -236 -5 -30
-12 -87 -16 -126 -6 -73 -6 -73 19 -73 23 0 25 5 31 57 8 78 14 103 23 103 5
0 23 -36 41 -80 l33 -80 64 0 c35 0 64 1 64 3 -1 8 -62 303 -75 357 -20 85
-31 345 -16 383 9 23 13 26 28 16 23 -15 94 -100 136 -160 18 -26 53 -75 80
-110 31 -42 47 -73 47 -93 0 -16 7 -63 15 -105 7 -42 17 -124 20 -183 l7 -108
33 0 33 0 -15 43 c-8 23 -19 98 -24 166 -5 68 -12 128 -15 132 -19 31 52 -16
105 -70 22 -22 23 -28 20 -147 l-4 -124 322 0 c263 0 321 2 317 13 -5 15 35
37 66 37 15 0 20 -7 20 -25 l0 -25 420 0 420 0 0 24 c0 14 4 27 9 30 22 14 63
113 69 169 9 73 -10 299 -29 342 -7 17 -18 57 -25 90 -22 107 -36 160 -45 169
-21 23 -6 28 59 22 167 -15 252 -26 322 -41 242 -51 418 -66 428 -37 7 22 2
24 -45 26 -27 1 -95 10 -153 19 -91 15 -375 52 -592 78 -204 24 -499 89 -670
149 -135 47 -150 53 -218 94 -36 21 -85 51 -110 65 -55 31 -188 156 -245 231
-42 55 -109 162 -161 256 -15 27 -36 65 -48 85 -11 21 -38 68 -59 105 -52 92
-120 193 -131 194 -4 0 -5 -16 -2 -35 4 -21 3 -35 -3 -35 -14 0 -23 36 -23 84
1 22 -4 46 -10 53 -18 22 -2 26 53 14 83 -18 222 -25 245 -13 12 6 83 25 160
42 76 16 158 35 182 40 68 16 82 13 82 -15 0 -32 14 -31 75 5 111 65 172 83
350 100 183 19 206 22 202 33 -2 6 -25 18 -51 27 -26 8 -44 19 -39 23 31 32
-186 36 -347 8 -58 -10 -150 -26 -205 -36 -55 -9 -154 -27 -220 -40 -66 -13
-137 -27 -158 -30 -22 -3 -50 -11 -63 -17 -26 -12 -32 -28 -11 -28 27 -1 -103
-40 -182 -56 -100 -19 -99 -20 -132 86 -36 115 -36 164 2 470 5 41 14 151 19
245 6 93 13 172 16 175 9 8 37 -36 89 -137 51 -99 121 -211 158 -251 23 -24
52 -30 44 -8 -3 7 0 19 6 26 8 8 8 11 1 7 -24 -14 -42 24 -78 158 -48 185 -68
278 -58 286 6 7 46 12 197 24 33 3 96 2 140 -2 78 -8 80 -9 97 -42 35 -70 94
-158 143 -212 27 -31 73 -82 100 -113 59 -66 118 -98 170 -89 49 8 38 27 -21
35 -55 8 -86 36 -129 120 -29 55 -65 195 -65 253 l0 40 102 -4 c57 -1 113 -8
124 -15 12 -6 49 -45 82 -87 50 -63 94 -99 118 -99 2 0 2 11 -2 25 -8 31 -5
31 54 1 64 -32 92 -40 92 -26 0 7 -14 40 -32 76 -17 35 -29 67 -25 70 4 4 41
-16 84 -44 116 -76 240 -131 312 -138 53 -6 61 -5 61 10 0 13 5 16 23 11 12
-4 26 -11 31 -16 16 -14 63 -10 70 6 4 12 26 15 110 15 57 0 111 3 120 6 26
10 18 47 -25 127 -5 9 -6 29 -3 43 9 34 -18 358 -28 342 -4 -7 -5 -54 -1 -104
7 -106 -5 -147 -27 -92 -25 60 -90 193 -90 183 0 -23 43 -143 69 -195 16 -31
37 -84 46 -118 10 -34 28 -83 40 -109 28 -57 19 -76 -29 -68 -17 3 -91 7 -163
9 l-133 4 -62 52 c-34 28 -77 73 -95 98 -24 34 -33 42 -33 27 0 -26 62 -130
103 -172 l31 -33 -32 0 c-67 0 -342 163 -342 203 0 5 -11 21 -25 35 -27 30
-98 159 -178 324 -29 59 -55 108 -59 108 -27 1 10 -104 116 -328 47 -101 86
-188 86 -193 0 -5 9 -27 20 -49 23 -46 25 -60 7 -60 -21 0 -88 38 -120 67
l-30 28 7 -35 6 -35 -29 35 c-103 122 -149 191 -215 320 -83 163 -136 319
-136 401 1 91 -53 529 -63 522 -12 -7 -1 -913 13 -1036 13 -118 50 -304 71
-359 10 -27 14 -48 9 -48 -20 0 -137 173 -186 275 -126 265 -184 746 -146
1215 7 91 8 148 2 154 -10 10 -28 -29 -37 -82 -5 -28 -8 -31 -19 -20 -12 12
-11 27 7 102 25 99 18 123 -23 84 -78 -72 -101 -80 -115 -41 -4 10 -41 63 -83
118 -168 221 -368 540 -395 632 -8 27 -38 99 -66 159 -34 72 -49 117 -46 134
3 14 26 74 51 134 25 59 46 116 46 125 0 9 24 61 53 116 47 89 62 108 147 183
110 97 131 109 201 120 29 4 54 13 57 20 2 6 -3 12 -12 12 -9 0 -16 5 -16 10
0 22 33 22 96 1 35 -11 72 -21 80 -21 29 0 -2 26 -54 45 -26 10 -60 27 -77 37
-90 54 -200 -12 -370 -223 -23 -29 -63 -103 -85 -159 -12 -30 -37 -84 -55
-120 -18 -36 -45 -102 -61 -147 -16 -46 -31 -83 -35 -83 -3 0 -14 21 -24 48
-9 26 -26 67 -37 92 -24 54 -67 190 -127 405 -11 39 -28 134 -37 212 -10 79
-21 148 -25 155 -24 38 -94 -119 -108 -243 -5 -46 -15 -97 -22 -114 -6 -16
-14 -68 -18 -115 -10 -146 -7 -550 6 -640 7 -47 20 -161 28 -255 15 -163 36
-281 57 -335 32 -77 26 -240 -16 -505 -14 -88 -30 -203 -36 -255 -6 -52 -16
-129 -24 -170 -8 -41 -20 -113 -27 -160 -7 -47 -15 -90 -18 -97 -9 -18 -120
77 -120 103 -2 44 -64 69 -111 44 -13 -7 -38 -3 -91 15 -43 15 -95 25 -129 25
-65 0 -156 -24 -185 -49 -33 -28 -75 -43 -79 -28 -3 6 -9 27 -15 46 -6 19 -11
50 -11 70 0 61 -73 255 -121 323 l-24 33 -3 -27 c-2 -15 4 -42 12 -60 23 -50
43 -114 67 -213 11 -50 25 -95 30 -101 5 -7 12 -35 16 -63 8 -71 -13 -66 -27
7 -6 31 -17 80 -25 107 -7 28 -16 68 -20 89 -10 62 -46 147 -70 170 -12 12
-27 45 -34 78 -13 62 -24 76 -46 58 -9 -7 -15 -8 -20 0 -3 5 -17 7 -31 4 -14
-4 -24 -2 -24 5 0 6 -7 11 -16 11 -14 0 -15 -7 -9 -47 5 -27 10 -104 11 -172
2 -67 5 -125 7 -127 2 -3 7 23 10 57 9 81 21 96 28 34 6 -53 -3 -138 -27 -244
-9 -40 -11 -68 -6 -73 25 -25 49 85 51 235 1 27 5 37 17 37 13 0 15 -7 9 -37
-4 -21 -8 -83 -9 -138 -1 -55 -5 -112 -10 -127 -7 -25 -5 -28 14 -28 26 0 90
-47 90 -66 0 -8 -4 -14 -8 -14 -17 0 -123 39 -160 59 -20 11 -74 34 -119 51
-45 18 -87 38 -93 45 -6 7 -19 50 -29 96 -11 46 -33 122 -50 169 -39 107 -40
183 -3 188 13 2 32 -4 43 -14 26 -23 34 -12 35 49 1 29 2 57 3 63 0 6 20 23
43 38 30 20 51 26 73 23 16 -3 70 4 119 15 49 10 96 16 105 13 11 -4 11 -1 -3
14 -15 16 -33 21 -90 23 l-71 3 1 80 c1 198 14 497 24 565 26 180 103 491 139
560 10 20 24 60 30 89 21 97 141 318 314 576 33 50 79 114 101 144 23 29 51
67 63 83 24 33 248 254 333 328 30 26 88 76 128 111 147 129 300 238 508 361
118 70 262 118 380 127 78 6 107 13 130 29 16 11 56 30 89 40 120 40 262 82
274 82 7 0 60 -48 119 -108 211 -212 419 -382 466 -382 8 0 19 -7 26 -15 6 -8
45 -30 86 -49 41 -20 74 -39 74 -43 0 -5 -38 -20 -84 -35 -160 -51 -404 -184
-465 -253 -42 -48 -39 -64 4 -27 91 80 255 171 440 243 57 22 149 40 175 34
19 -5 33 -23 59 -78 19 -39 56 -95 83 -124 26 -29 48 -58 48 -64 0 -7 17 -37
38 -68 20 -31 45 -73 56 -93 10 -20 40 -61 66 -90 53 -60 70 -88 70 -116 0
-31 59 -139 101 -184 21 -23 39 -46 39 -50 0 -15 -27 -8 -45 12 -10 11 -23 20
-29 20 -7 0 -32 21 -56 46 -45 46 -113 96 -198 146 -25 14 -53 35 -61 45 -36
43 -174 121 -248 139 -28 7 -96 35 -140 56 -46 23 -33 -2 14 -26 26 -13 57
-32 68 -41 l20 -16 -20 5 c-47 13 -154 22 -199 18 -34 -3 -51 0 -57 9 -7 11
-17 5 -44 -25 -19 -22 -35 -43 -35 -46 0 -17 14 -16 51 2 56 27 125 33 206 18
91 -16 171 -39 178 -51 4 -5 31 -25 61 -44 52 -33 166 -120 247 -188 21 -18
49 -36 61 -42 23 -10 112 -81 156 -125 37 -36 70 -93 70 -121 0 -13 14 -46 30
-74 16 -27 30 -63 30 -78 0 -15 9 -53 19 -85 25 -72 51 -222 51 -287 0 -27 -7
-74 -15 -104 -7 -29 -17 -78 -21 -107 -5 -41 -10 -54 -23 -54 -16 0 -91 65
-91 79 0 11 -87 121 -127 160 -52 51 -143 163 -143 177 0 7 -10 21 -22 31 -13
10 -35 34 -50 53 -15 19 -50 60 -78 90 -56 61 -57 40 -1 -29 19 -25 46 -60 59
-79 13 -19 30 -41 38 -49 8 -8 14 -19 14 -25 0 -5 9 -21 20 -35 11 -14 20 -34
20 -45 0 -21 87 -138 102 -138 4 0 22 -23 39 -50 17 -28 39 -56 49 -63 10 -7
37 -48 61 -92 24 -44 53 -98 66 -120 35 -61 83 -166 83 -181 0 -7 -6 -14 -12
-17 -10 -3 -9 -9 3 -23 10 -10 27 -40 39 -66 24 -51 107 -122 170 -144 95 -35
302 2 370 66 18 17 35 30 39 30 6 0 51 -135 142 -428 11 -35 17 -67 14 -72 -3
-4 -40 -27 -83 -50 -86 -46 -102 -62 -102 -99 0 -15 4 -21 8 -15 4 6 34 28 67
49 33 20 68 46 78 56 40 42 54 24 86 -106 33 -138 62 -395 43 -395 -15 0 -260
-138 -281 -159 -11 -11 -25 -21 -29 -21 -5 0 -31 -20 -58 -45 -27 -24 -52 -45
-55 -45 -4 0 -26 -26 -50 -57 -23 -32 -46 -60 -51 -61 -13 -6 -81 -153 -73
-160 4 -4 22 11 40 33 19 22 36 37 38 35 4 -5 -18 -100 -37 -157 -14 -43 21
-25 50 25 55 95 124 159 124 116 0 -26 106 -255 124 -266 6 -4 20 2 31 12 12
11 27 20 33 20 6 0 18 16 26 35 17 40 43 46 52 11 8 -33 -12 -66 -39 -66 -26
0 -61 -36 -53 -56 7 -18 121 -70 173 -79 35 -5 43 -4 52 14 15 28 15 29 -23
45 -28 11 -36 22 -41 50 -8 40 -1 56 24 56 9 0 39 14 65 31 27 16 54 28 62 25
23 -9 28 -73 9 -122 -16 -41 -16 -47 -1 -63 9 -10 16 -20 16 -24 0 -9 -125
-44 -199 -56 -71 -11 -80 -16 -63 -33 7 -7 46 -11 106 -10 l95 2 -30 -45 c-16
-24 -55 -70 -85 -102 -84 -88 -83 -87 -39 -68 65 26 167 101 236 170 35 36 66
71 69 78 3 7 19 29 37 48 18 19 55 60 84 92 29 31 56 57 62 57 13 0 1 -101
-24 -210 -33 -142 -115 -385 -142 -418 -22 -27 1 -20 26 8 15 16 32 30 37 30
9 0 40 37 118 143 17 24 32 47 32 50 0 3 10 22 22 42 39 67 43 31 40 -319 l-2
-319 -26 -46 c-14 -26 -39 -63 -55 -82 -17 -18 -42 -54 -56 -78 -15 -24 -46
-64 -71 -89 -24 -25 -56 -62 -70 -81 -35 -48 -140 -159 -232 -245 -110 -103
-479 -480 -475 -485 7 -7 48 25 150 119 55 51 110 97 122 102 12 6 27 24 34
40 6 16 20 33 29 38 15 8 18 4 24 -28 3 -20 6 -58 6 -84 0 -25 9 -104 19 -175
11 -70 25 -162 31 -203 20 -134 42 -244 55 -275 29 -69 28 -82 -10 -105 -19
-12 -40 -31 -47 -43 -16 -30 -48 -156 -48 -189 l0 -28 80 0 c79 0 80 0 80 25
0 34 38 107 53 102 8 -2 12 -27 12 -65 l0 -62 339 0 338 0 -6 23 c-4 12 -10
39 -13 60 -6 36 -4 39 18 35 21 -3 25 -11 33 -61 l9 -57 84 0 84 0 -7 35 c-6
32 -4 35 17 35 13 0 136 -5 273 -10 230 -9 258 -9 350 9 171 33 289 43 409 35
106 -7 115 -9 208 -55 84 -43 105 -49 158 -49 65 0 66 1 52 28 -5 9 -14 49
-21 87 -22 126 -46 218 -121 450 -96 302 -102 325 -76 325 26 0 73 -66 125
-175 119 -249 187 -384 195 -384 4 -1 7 26 7 60 0 56 -6 72 -99 257 -55 108
-123 238 -152 287 -53 92 -139 285 -139 312 0 8 -11 36 -25 62 -13 25 -52 114
-86 196 -71 172 -109 252 -152 315 -53 77 -58 104 -36 201 44 196 70 427 78
689 l7 255 47 -97 c114 -239 214 -656 257 -1068 7 -65 10 -207 8 -328 -1 -116
-1 -212 2 -212 11 0 60 148 74 225 74 397 28 910 -128 1420 -20 66 -43 147
-51 180 -22 99 -186 480 -340 793 -80 162 -145 297 -145 302 0 4 -26 59 -59
123 -32 63 -66 138 -76 166 l-17 52 41 63 c23 34 53 74 67 87 37 34 111 192
127 271 8 37 23 78 34 92 47 60 83 204 83 335 0 163 -26 240 -139 406 -34 49
-61 93 -61 98 0 5 -31 50 -69 100 -76 100 -197 224 -247 254 -109 63 -234 148
-239 162 -4 9 -9 48 -12 86 -4 39 -8 64 -10 58 -3 -7 -11 -13 -19 -13 -8 0
-36 -12 -64 -27 -55 -31 -66 -51 -95 -173 -13 -59 -23 -81 -48 -102 -17 -16
-41 -28 -53 -28 -12 0 -27 -7 -34 -15 -16 -19 -61 -41 -101 -50 -26 -6 -31 -4
-26 8 3 8 15 48 27 88 91 312 110 363 151 401 35 33 105 66 174 84 18 4 25 2
25 -9 0 -8 7 -20 15 -27 19 -16 19 -7 0 30 -9 17 -12 40 -9 58 7 33 -17 62
-59 72 -19 5 -22 13 -24 57 -1 28 -7 61 -13 73 -11 21 -101 70 -127 70 -9 0
-13 20 -13 64 0 65 0 65 -60 134 -33 39 -68 73 -77 77 -10 4 -64 13 -121 20
-118 15 -128 21 -173 106 -30 55 -48 69 -92 69 -9 0 -111 40 -225 89 -186 80
-269 111 -296 111 -18 0 5 -76 73 -236 39 -91 71 -172 71 -179 0 -8 9 -36 19
-63 62 -157 41 -207 -209 -505 -58 -68 -113 -138 -123 -155 l-18 -31 35 -6
c19 -4 111 0 205 9 253 24 345 22 407 -9 73 -36 113 -83 222 -260 l99 -160
-40 -7 c-22 -4 -47 -14 -56 -21 -9 -8 -29 -17 -46 -19 -16 -3 -37 -8 -46 -12
-13 -6 -32 19 -89 116 -88 148 -111 175 -159 183 -20 3 -115 -1 -211 -9 -188
-17 -329 -20 -345 -8 -6 4 -19 24 -30 44 -10 21 -25 40 -31 42 -7 3 24 -57 68
-132 80 -135 158 -292 158 -314 0 -6 12 -46 26 -87 35 -99 54 -200 54 -282 0
-63 -1 -67 -43 -112 -39 -43 -66 -58 -68 -39 -9 86 -19 120 -44 146 -13 14
-28 26 -34 26 -13 0 -73 -201 -92 -310 -6 -35 -20 -68 -38 -90 -44 -55 -254
-190 -265 -171 -3 4 0 39 6 77 7 44 9 167 5 339 -5 276 -9 309 -63 531 -16 69
-58 194 -79 239 -8 17 -31 75 -51 130 -20 55 -47 128 -60 162 -24 65 -166 352
-203 413 -12 19 -24 44 -28 55 -12 39 -92 188 -129 241 -21 30 -35 56 -33 58
5 5 152 -91 220 -143 24 -19 75 -65 113 -103 37 -37 71 -68 75 -68 4 0 47 -39
97 -87 90 -88 153 -159 229 -259 123 -161 160 -205 163 -194 2 6 -7 24 -20 38
-13 15 -36 45 -50 68 l-26 41 28 51 c15 28 90 122 166 209 77 87 150 178 163
201 26 49 25 96 -3 153 -9 18 -16 39 -16 49 0 9 -4 20 -9 25 -13 14 -115 271
-129 325 -26 103 -20 166 20 223 23 33 86 67 125 68 33 1 -24 21 -177 64 -52
14 -97 29 -100 34 -3 4 -102 8 -220 10 -180 2 -220 0 -245 -13 -16 -9 -42 -16
-56 -16 -15 0 -40 -7 -55 -15 -16 -8 -37 -15 -46 -15 -24 0 -98 -30 -98 -40 0
-5 -12 -15 -27 -23 -110 -57 -137 -74 -159 -100 -23 -27 -28 -29 -67 -23 -102
17 -330 23 -496 14 -97 -6 -186 -10 -198 -10 -35 0 -102 36 -178 97 -38 30
-96 75 -127 100 -44 35 -66 45 -94 45 l-36 0 29 -34z m1012 -247 c36 -6 67
-13 69 -14 5 -4 -32 -79 -47 -95 -18 -19 -41 -74 -41 -100 0 -24 -19 -25 -70
-6 -19 8 -71 28 -115 45 -94 36 -333 153 -334 163 -2 16 453 21 538 7z m-2009
-1447 c0 -85 3 -164 6 -177 3 -13 21 -33 40 -44 19 -11 34 -27 34 -34 0 -12
46 -131 130 -337 10 -25 55 -118 99 -208 45 -90 81 -168 81 -173 0 -6 17 -41
39 -77 21 -37 49 -87 63 -112 25 -44 77 -136 101 -175 28 -46 113 -171 123
-180 5 -5 29 -35 53 -67 23 -31 52 -67 64 -80 86 -94 115 -146 165 -298 27
-81 31 -220 7 -240 -9 -7 -14 -19 -11 -27 3 -7 1 -24 -4 -38 -6 -16 -6 -25 0
-25 24 0 40 -52 50 -165 14 -153 35 -276 66 -393 14 -52 24 -96 21 -98 -5 -5
-230 -22 -330 -25 -37 -1 -71 2 -76 7 -11 12 -27 136 -42 322 l-13 152 32 65
c18 36 38 65 45 65 7 0 41 -9 75 -20 65 -21 114 -26 97 -12 -6 5 -55 23 -110
41 -143 47 -304 127 -315 157 -7 16 -4 44 8 89 22 87 9 102 -43 47 -42 -46
-60 -45 -69 3 -4 18 -13 38 -21 45 -8 7 -15 22 -15 33 0 28 48 107 64 107 8 0
32 43 56 98 23 53 48 111 55 127 7 17 16 40 19 53 3 12 9 31 12 42 10 36 -22
22 -66 -27 l-41 -48 6 36 c9 51 -9 57 -39 12 -15 -21 -26 -41 -26 -45 0 -4
-13 -36 -29 -70 -15 -35 -31 -73 -35 -85 -8 -24 -72 -67 -90 -60 -13 5 -89
132 -121 202 -44 95 -100 267 -135 410 -85 356 -83 341 -83 780 -1 378 0 393
22 470 13 44 29 105 36 136 29 133 44 80 45 -159z m727 120 c-26 -28 -107 -84
-107 -74 0 16 88 92 106 92 16 0 16 -1 1 -18z m3921 -77 c14 -31 15 -45 3 -64
-13 -20 -51 -4 -51 22 1 64 27 88 48 42z m213 -46 c96 -62 148 -106 149 -124
1 -5 14 -26 30 -45 17 -19 30 -38 30 -42 0 -4 -39 19 -87 51 -63 42 -91 68
-100 90 -9 25 -17 31 -42 31 -25 0 -37 8 -61 42 -56 77 -41 77 81 -3z m-1398
-22 c85 -23 90 -26 113 -67 14 -24 40 -65 59 -90 19 -26 35 -50 35 -53 0 -3
-15 -7 -32 -9 -25 -2 -34 -8 -36 -25 -3 -22 -8 -23 -97 -23 -91 0 -95 1 -130
31 -19 17 -35 39 -35 48 0 9 -9 35 -20 56 -33 65 -39 98 -24 135 16 38 15 38
167 -3z m1185 -59 c17 -11 32 -23 32 -28 0 -5 3 -15 6 -23 3 -9 -9 -32 -31
-56 -50 -56 -85 -56 -119 -2 -33 52 -42 103 -22 124 20 20 88 12 134 -15z
m-328 -102 c4 -11 24 -46 44 -76 20 -30 35 -58 33 -63 -1 -4 -16 -17 -33 -27
l-31 -20 -43 68 c-23 37 -51 77 -62 89 -22 24 -17 43 12 43 10 0 21 4 24 9 10
15 47 0 56 -23z m-141 -69 c55 -120 54 -113 21 -127 -18 -7 -44 -10 -67 -5
-21 3 -65 6 -98 6 -59 -1 -60 0 -92 42 -53 71 -53 72 24 92 37 10 79 24 93 31
14 7 41 13 60 13 33 1 37 -3 59 -52z m-483 -21 c10 -8 16 -18 11 -22 -10 -10
-59 8 -65 24 -5 17 30 15 54 -2z m1463 -61 c48 -55 143 -256 128 -271 -3 -4
-13 9 -21 27 -18 39 -119 199 -157 250 -14 19 -28 42 -32 52 -6 17 -4 16 22
-2 16 -11 43 -37 60 -56z m143 -132 c18 -35 35 -63 39 -63 4 0 16 -18 28 -40
11 -22 33 -59 48 -82 15 -24 34 -54 41 -68 19 -35 27 -222 13 -300 -21 -121
-29 -138 -99 -208 -70 -70 -99 -132 -83 -176 10 -25 -5 -86 -21 -86 -7 0 -8
13 -4 38 3 20 6 72 6 115 0 60 3 77 14 77 9 0 18 18 25 48 9 41 8 50 -10 75
-11 16 -18 35 -15 44 10 24 -3 53 -23 53 -26 0 -42 23 -48 69 -6 40 -23 48
-23 10 0 -10 -4 -19 -9 -19 -12 0 -51 49 -51 64 0 7 -25 35 -55 63 -61 58
-182 123 -227 123 -18 0 -31 6 -34 18 -3 9 -14 33 -25 53 -31 60 -26 74 37
103 31 14 69 26 84 26 31 0 48 16 59 57 l8 28 17 -40 c34 -79 44 -121 48 -206
3 -63 10 -95 23 -115 11 -17 20 -23 23 -16 6 19 22 14 32 -10 9 -23 9 -23 9 3
1 14 -5 39 -13 55 -16 33 -29 174 -16 174 4 0 14 -15 21 -32 l13 -33 4 48 c2
26 -4 72 -12 102 -33 112 -9 108 49 -7 34 -69 35 -74 36 -197 l1 -126 12 107
c6 58 15 110 19 115 13 12 46 -38 53 -79 4 -21 12 -46 19 -55 12 -17 14 -16
20 9 10 41 -41 230 -89 328 -54 112 -54 112 -12 60 19 -25 50 -73 68 -107z
m-1771 -89 c103 -36 279 -74 349 -74 78 0 103 -9 138 -48 23 -27 24 -27 17 -3
-7 22 -5 23 20 17 16 -4 80 -33 144 -64 l115 -57 61 -120 c91 -181 283 -718
351 -982 8 -29 21 -79 29 -110 35 -130 67 -338 50 -321 -3 2 -19 52 -35 109
-17 57 -35 112 -40 121 -6 10 -10 23 -10 29 0 6 -7 25 -15 42 -8 18 -24 59
-36 92 -12 33 -31 87 -43 120 -12 33 -27 70 -34 82 -7 12 -12 28 -12 35 0 8
-7 23 -16 34 -15 19 -15 19 -11 -1 3 -11 41 -126 85 -255 83 -243 167 -513
175 -565 3 -16 13 -57 21 -90 9 -33 36 -161 61 -285 25 -124 57 -274 71 -335
14 -60 32 -139 39 -175 23 -103 45 -367 50 -580 3 -107 9 -218 14 -247 7 -34
7 -73 0 -114 -22 -135 -25 -127 -129 286 -16 66 -49 206 -74 310 -24 105 -51
213 -59 240 -9 28 -36 122 -61 210 -25 88 -57 198 -70 245 -14 47 -27 103 -31
125 -4 22 -11 51 -16 65 -5 14 -13 48 -18 75 -5 28 -16 75 -24 105 -8 30 -20
83 -27 118 -7 34 -17 62 -21 62 -5 0 -9 14 -9 32 0 17 -4 57 -10 87 -5 31 -19
112 -31 181 -52 308 -93 495 -139 640 -15 47 -30 108 -34 135 -4 28 -13 66
-21 85 -7 19 -16 44 -19 54 -4 10 -9 17 -11 14 -3 -2 2 -29 10 -59 9 -30 26
-103 39 -164 13 -60 38 -168 55 -240 16 -71 37 -168 46 -215 48 -264 56 -314
66 -405 21 -203 153 -775 294 -1275 19 -69 35 -137 35 -153 0 -15 20 -108 44
-205 25 -97 54 -233 65 -302 52 -326 60 -390 50 -390 -4 0 -10 17 -13 38 -8
40 -30 107 -54 162 -8 19 -30 77 -48 128 -18 52 -35 96 -38 100 -3 3 -6 15 -6
27 0 13 -7 28 -15 35 -8 7 -15 19 -15 27 0 7 -11 35 -24 61 -57 112 -140 345
-176 492 -39 158 -36 152 -44 90 -3 -30 -11 -147 -17 -260 -8 -168 -16 -228
-41 -335 -30 -127 -115 -402 -138 -445 -6 -11 -16 -49 -21 -83 -6 -34 -14 -66
-18 -72 -5 -5 -12 -21 -16 -35 -4 -14 -17 -45 -28 -70 -20 -40 -22 -42 -25
-20 -10 68 -38 35 -53 -63 -5 -34 -14 -75 -19 -92 -95 -305 -134 -407 -181
-465 l-20 -25 7 30 c3 17 12 39 18 50 33 55 84 256 111 437 36 237 67 965 52
1217 -9 164 -11 151 48 336 34 106 44 144 50 190 6 48 6 49 -8 23 -8 -15 -18
-42 -22 -60 -10 -46 -70 -219 -88 -254 -8 -16 -18 -48 -22 -69 -4 -22 -18 -62
-32 -89 -34 -69 -133 -219 -140 -212 -3 3 8 43 26 89 54 144 88 296 98 435 7
111 1 113 -67 19 -25 -34 -61 -80 -80 -103 -19 -23 -46 -56 -60 -75 -32 -43
-169 -177 -195 -191 -18 -10 -19 -10 -5 10 133 192 180 268 180 294 0 7 25 71
57 143 103 238 130 324 197 635 36 168 38 181 28 225 -12 53 -17 37 -38 -135
-17 -145 -36 -214 -134 -485 -4 -11 -5 81 -3 205 5 225 -6 456 -27 586 -21
132 -42 239 -61 318 -10 44 -19 92 -19 107 0 41 -45 206 -91 331 -45 123 -176
407 -195 423 -19 16 -32 73 -38 170 -6 80 -19 170 -41 273 -9 38 0 40 66 16z
m1434 -258 c52 -22 132 -102 187 -186 55 -84 66 -114 49 -134 -13 -16 -9 -20
32 -30 50 -12 28 -82 -47 -146 -71 -62 -108 -80 -160 -80 -28 0 -76 -7 -106
-15 -30 -8 -105 -15 -167 -16 -80 -1 -113 -5 -113 -13 0 -6 7 -38 15 -71 9
-32 14 -63 11 -69 -2 -6 -5 -2 -5 9 -1 11 -7 29 -14 40 -8 11 -22 47 -32 80
-53 178 -159 454 -212 552 -18 34 -33 65 -33 68 0 3 18 5 40 5 46 0 47 -2 103
-145 48 -121 73 -206 97 -328 11 -56 24 -105 29 -110 4 -4 19 -3 32 2 13 6 83
28 154 51 130 40 255 102 255 127 0 16 -2 16 -34 4 -22 -9 -29 -4 -78 57 -29
36 -73 85 -98 109 -44 42 -45 45 -45 106 0 59 1 62 25 65 36 5 62 32 57 59 -5
27 9 29 58 9z m-1386 -318 c25 -62 55 -133 67 -158 44 -91 133 -356 140 -417
2 -18 12 -63 24 -99 11 -36 20 -83 20 -103 0 -20 7 -64 16 -96 18 -73 45 -255
38 -266 -7 -12 -52 11 -58 30 -2 9 -2 -6 1 -34 3 -27 12 -67 21 -88 10 -28 12
-41 4 -46 -15 -9 -2 -28 23 -32 37 -7 24 -42 -20 -55 -22 -6 -71 -26 -110 -43
-80 -36 -99 -35 -85 6 5 15 13 79 19 141 5 63 12 116 15 120 4 3 29 -20 57
-51 54 -61 99 -94 81 -60 -6 10 -20 27 -32 38 -45 40 -114 150 -126 199 l-12
51 -2 -55 c-1 -30 -1 -102 -1 -160 1 -58 -3 -121 -7 -140 -7 -31 -10 -23 -21
65 -15 119 -61 298 -133 525 -53 165 -53 165 -53 297 0 167 7 176 72 105 27
-29 53 -52 60 -52 15 0 -6 70 -46 153 -37 77 -36 67 -26 215 5 79 12 122 19
122 6 0 31 -51 55 -112z m1656 -290 c-7 -73 -42 -194 -74 -256 -42 -79 -116
-141 -207 -172 -60 -21 -134 -27 -134 -11 0 6 34 27 75 47 98 48 109 62 111
134 2 32 7 67 13 77 6 12 6 25 0 34 -5 7 -9 35 -9 61 0 39 4 50 24 64 34 22
69 15 76 -15 7 -29 31 -46 54 -38 12 5 16 20 16 60 0 40 5 59 21 75 32 35 42
18 34 -60z m-23 -581 c48 -94 92 -188 99 -207 7 -19 49 -109 95 -200 82 -165
144 -295 144 -304 0 -2 13 -33 29 -68 88 -195 211 -519 211 -557 0 -16 4 -41
9 -57 24 -76 43 -151 70 -279 50 -238 60 -303 78 -505 14 -161 15 -222 6 -348
-6 -85 -15 -158 -19 -162 -5 -5 -10 47 -12 118 -4 183 -37 400 -94 617 -11 44
-25 98 -30 120 -19 74 -106 339 -167 502 -33 89 -67 191 -75 225 -18 71 -61
120 -98 110 -19 -4 -20 -11 -15 -91 6 -91 26 -265 51 -446 20 -143 21 -389 1
-491 -32 -167 -37 -191 -56 -270 -23 -100 -57 -203 -103 -318 -20 -49 -36 -94
-36 -101 0 -7 -9 -32 -20 -56 l-21 -44 7 45 c3 25 11 51 17 58 13 17 23 171 9
157 -5 -5 -20 -41 -32 -80 -13 -38 -32 -88 -43 -109 -26 -53 -108 -176 -117
-176 -8 0 12 109 39 210 30 114 59 317 71 500 10 155 4 408 -16 756 -7 111 5
169 35 179 25 8 51 80 51 140 0 28 5 57 10 65 8 13 10 12 10 -3 0 -9 4 -25 10
-35 20 -35 48 -120 55 -165 8 -52 22 -61 30 -19 3 15 13 48 21 75 24 72 14
191 -32 387 -17 73 -40 145 -54 175 -5 11 -18 52 -29 90 -87 315 -180 575
-216 605 -24 20 -20 95 7 114 12 9 25 16 28 16 3 0 44 -78 92 -173z m-320 -80
c8 -48 7 -62 -6 -76 -8 -9 -18 -37 -21 -61 -9 -65 -15 -93 -20 -88 -4 4 -17
70 -46 233 -6 33 -17 70 -25 82 -20 32 -17 52 9 57 61 13 61 13 81 -39 10 -27
23 -76 28 -108z m-4822 87 c0 -8 4 -14 8 -14 5 0 34 -40 66 -90 32 -49 62 -90
67 -90 18 0 60 -70 73 -121 8 -30 16 -93 19 -140 8 -145 32 -152 65 -20 l19
72 11 -63 c6 -35 16 -92 23 -128 6 -36 17 -78 24 -95 26 -60 66 -204 65 -237
0 -18 4 -89 10 -158 11 -125 -1 -365 -20 -400 -4 -8 -11 -46 -16 -85 -7 -67
-8 -68 -16 -35 -13 49 -25 57 -32 23 -8 -36 10 -245 29 -337 8 -39 15 -83 15
-97 0 -35 40 -141 101 -264 78 -158 165 -263 189 -226 6 10 16 3 39 -29 44
-61 41 -73 -11 -65 -76 13 -105 30 -118 70 -9 29 -10 39 -1 45 8 4 -16 24 -61
51 -76 46 -205 168 -272 256 -51 69 -116 175 -116 191 0 6 -4 12 -8 12 -5 0
-14 15 -20 33 -53 155 -60 170 -67 148 -3 -12 0 -45 9 -74 16 -56 29 -297 16
-297 -4 0 -13 12 -18 28 -6 15 -20 52 -31 82 -56 145 -79 269 -101 545 -18
211 -20 417 -8 605 4 62 -7 50 -22 -25 -10 -49 -26 -119 -35 -155 -9 -36 -25
-128 -36 -205 -10 -77 -25 -160 -33 -185 -36 -111 -86 -321 -92 -387 -4 -40
-11 -73 -15 -73 -5 0 -9 11 -9 24 0 14 -4 28 -10 31 -17 11 -11 -47 14 -135
24 -87 39 -248 27 -305 l-6 -29 -16 24 c-9 14 -37 87 -62 163 -26 76 -63 172
-83 215 -20 42 -47 100 -60 128 -19 41 -24 67 -24 132 0 70 -3 83 -20 95 -30
21 -18 94 17 108 38 14 41 12 46 -43 15 -146 20 -178 27 -178 14 0 20 43 20
142 0 53 3 103 6 112 11 27 34 18 34 -13 0 -16 11 -58 24 -93 14 -36 28 -94
31 -129 9 -85 13 -99 26 -77 9 17 18 99 39 373 26 324 37 439 100 990 7 55 21
136 32 179 23 90 75 233 89 242 5 3 9 15 9 27 1 21 2 21 25 -6 14 -15 25 -35
25 -43z m-1702 -21 c34 -120 45 -164 41 -168 -3 -2 -26 36 -51 85 -41 80 -44
90 -29 104 22 23 27 20 39 -21z m5532 -354 c0 -39 -16 -45 -24 -8 -10 53 -8
63 9 49 8 -7 15 -25 15 -41z m917 -1 c-3 -7 -5 -2 -5 12 0 14 2 19 5 13 2 -7
2 -19 0 -25z m-4279 -148 c86 -168 91 -184 142 -440 29 -149 73 -308 109 -399
12 -29 20 -56 17 -58 -9 -9 -50 63 -115 200 -93 195 -130 307 -215 642 -71
283 -59 293 62 55z m-888 101 c0 -4 -52 -62 -116 -127 -179 -183 -283 -296
-351 -381 -38 -48 -93 -139 -93 -154 0 -6 -23 -50 -51 -97 -28 -48 -53 -103
-56 -122 -16 -102 -48 -83 -57 35 -4 53 -13 99 -25 122 -31 60 -52 184 -45
261 14 159 125 334 253 401 72 37 77 37 106 9 12 -13 36 -31 54 -41 29 -15 33
-21 27 -47 -8 -41 4 -39 98 15 44 25 83 45 87 45 4 0 9 6 12 13 3 7 22 19 44
26 21 7 50 21 63 32 26 20 50 25 50 10z m1803 -345 c26 -54 61 -121 77 -148
17 -28 29 -52 26 -55 -10 -10 -186 10 -196 22 -13 16 -26 379 -15 421 7 27 10
22 35 -56 14 -47 48 -129 73 -184z m-3129 209 c5 -29 4 -36 -3 -25 -6 8 -11
28 -11 44 0 39 6 31 14 -19z m206 -170 c55 -24 69 -26 95 -16 40 14 41 14 59
-5 10 -10 16 -33 16 -63 0 -27 4 -61 9 -77 5 -16 12 -46 16 -66 3 -21 10 -38
16 -38 6 0 8 30 3 85 -7 87 6 150 30 142 6 -2 14 -37 17 -78 3 -41 12 -120 19
-176 23 -171 -3 -190 -123 -93 -41 33 -80 60 -85 60 -51 0 -171 236 -172 339
0 27 1 27 100 -14z m1118 -52 c36 -36 71 -83 91 -124 31 -63 32 -69 25 -143
-4 -42 -11 -79 -17 -83 -5 -3 -19 6 -29 20 -41 56 -64 24 -46 -63 l12 -58 -48
-54 c-53 -58 -79 -67 -171 -58 -46 5 -50 7 -53 33 -4 35 -13 34 -34 -3 -21
-37 -68 -42 -95 -10 -12 14 -30 20 -59 20 -62 0 -86 24 -92 93 -12 143 74 312
207 406 43 30 74 33 50 5 -10 -12 -8 -19 9 -36 18 -19 25 -20 48 -10 19 9 30
10 40 1 10 -8 18 -4 34 23 11 18 23 44 27 58 6 24 20 40 35 40 4 0 34 -26 66
-57z m4246 -51 c6 -106 1 -168 -14 -177 -5 -3 -11 23 -15 58 -4 34 -15 97 -26
141 -10 43 -19 80 -19 82 0 2 15 4 33 4 l34 0 7 -108z m-514 -100 c0 -19 -35
-55 -66 -68 -58 -24 -61 -15 -9 31 47 41 75 55 75 37z m200 -148 c0 -31 -23
-28 -28 4 -2 15 2 22 12 22 11 0 16 -9 16 -26z m1491 -265 c31 -80 79 -252 91
-324 14 -90 5 -632 -11 -648 -8 -8 -11 10 -11 65 0 198 -38 535 -91 797 -16
79 -26 148 -23 153 11 17 28 1 45 -43z m-5721 -50 c0 -16 -5 -20 -27 -17 -31
4 -42 24 -16 31 35 9 43 7 43 -14z m5286 -469 c19 -63 39 -151 45 -195 5 -44
17 -138 26 -210 40 -324 3 -935 -73 -1181 -18 -61 -42 -122 -53 -135 -10 -13
-26 -40 -34 -60 -11 -27 -190 -219 -204 -219 -1 0 -16 20 -33 45 -17 25 -49
54 -71 65 -21 11 -39 25 -39 31 0 21 62 196 102 286 10 24 18 50 18 59 0 38
35 113 53 116 14 2 25 20 38 62 37 120 52 87 23 -50 -8 -42 -13 -78 -11 -80 4
-5 9 7 42 99 26 72 39 55 45 -59 5 -97 5 -99 22 -74 37 55 81 329 81 510 0 69
-2 208 -4 310 -3 121 -1 203 7 238 7 30 10 70 8 90 -2 21 -13 132 -24 247 -11
116 -22 230 -25 255 l-5 45 16 -40 c9 -22 31 -92 50 -155z m-4466 -370 l42
-55 -7 83 c-4 45 -5 82 -2 82 3 0 21 -21 39 -47 32 -44 56 -102 127 -303 14
-41 35 -91 47 -110 12 -19 27 -57 34 -85 7 -27 25 -89 41 -137 16 -48 29 -94
29 -102 0 -13 56 -134 95 -206 8 -14 24 -47 36 -75 13 -27 36 -72 53 -100 53
-90 176 -336 176 -353 0 -9 32 -80 70 -156 38 -77 67 -142 65 -145 -3 -2 -7
-2 -8 0 -43 51 -127 170 -127 179 0 6 -20 39 -43 73 -24 34 -61 91 -82 126
-21 36 -41 59 -43 53 -4 -14 89 -202 135 -274 15 -24 36 -58 46 -77 22 -40
124 -156 245 -279 45 -47 81 -87 79 -89 -16 -16 -220 119 -302 200 -27 27 -72
68 -99 91 -72 59 -288 283 -342 352 -25 32 -55 76 -65 96 -10 20 -40 67 -66
105 -27 37 -75 122 -108 187 -34 66 -65 121 -71 123 -10 3 -6 -64 15 -302 20
-221 24 -311 13 -300 -10 10 -70 231 -79 290 -2 17 -13 89 -23 160 -43 296
-44 390 -14 1012 l7 133 22 -48 c13 -26 42 -72 65 -102z m527 -116 c36 -65 39
-74 20 -74 -16 0 -85 111 -79 128 7 23 25 7 59 -54z m4784 -116 c12 -23 30
-76 40 -117 10 -42 27 -103 38 -135 12 -33 21 -70 21 -84 0 -13 8 -36 18 -50
22 -34 55 -103 76 -163 9 -25 32 -61 51 -79 37 -36 47 -83 21 -93 -15 -6 -14
-9 39 -202 16 -60 80 -260 130 -405 20 -58 51 -159 69 -225 18 -66 41 -142 50
-168 9 -26 16 -52 16 -57 0 -18 -28 -10 -77 20 -26 16 -93 47 -148 67 l-99 38
-18 150 c-28 242 -32 270 -43 267 -6 -1 -9 -46 -7 -117 2 -63 1 -115 -2 -115
-3 0 -19 28 -34 63 -16 34 -51 98 -79 142 -27 44 -71 125 -97 180 -26 54 -50
102 -54 105 -10 8 -79 149 -96 195 -7 22 -30 78 -51 125 -70 160 -71 163 -55
168 31 10 87 81 110 138 13 32 31 77 41 99 46 108 69 165 84 220 26 91 26 91
56 33z m-1401 -48 c0 -5 -7 -10 -15 -10 -8 0 -15 5 -15 10 0 6 7 10 15 10 8 0
15 -4 15 -10z m-3420 -84 c0 -31 -17 -6 -24 34 -7 35 -7 35 8 10 9 -14 15 -34
16 -44z m3746 -170 c-4 -50 -16 -127 -26 -171 -10 -44 -26 -123 -36 -175 -23
-128 -35 -145 -29 -40 2 47 7 145 11 219 6 135 20 204 53 247 27 36 34 16 27
-80z m-446 54 c10 -24 10 -58 1 -161 -6 -71 -15 -139 -21 -149 -5 -10 -10 -27
-10 -37 0 -17 -83 -297 -117 -393 -9 -25 -33 -94 -55 -154 -22 -63 -39 -132
-41 -162 -3 -76 -25 -57 -75 66 -44 105 -50 153 -32 235 10 45 36 158 85 376
50 217 64 247 151 334 41 41 81 75 88 75 8 0 19 -14 26 -30z m274 -505 c-15
-147 -56 -288 -111 -380 -70 -116 -78 -123 -141 -130 -31 -3 -74 -14 -94 -25
-20 -11 -41 -20 -46 -20 -10 0 -42 104 -42 135 0 50 36 138 68 166 42 37 61
38 54 2 -2 -16 -8 -32 -12 -38 -5 -5 -17 -32 -28 -60 -11 -27 -23 -58 -27 -67
-14 -33 31 -21 54 15 11 17 31 48 44 67 13 19 42 69 64 110 22 41 50 92 62
114 12 21 20 44 18 50 -3 7 8 30 24 51 16 22 41 58 56 80 15 22 32 43 38 47
16 11 26 -50 19 -117z m-5368 -79 c-3 -29 -15 -73 -26 -97 l-20 -44 0 33 c0
18 7 57 16 85 9 29 18 58 20 65 2 6 6 12 10 12 4 0 4 -24 0 -54z m6074 -46
c18 -47 39 -98 45 -115 45 -108 45 -237 1 -323 -30 -59 -101 -142 -122 -142
-7 0 -35 -14 -63 -31 -30 -19 -69 -33 -98 -37 l-48 -5 70 74 c39 41 82 95 96
119 14 25 40 68 56 95 49 79 50 98 6 146 -37 41 -38 43 -36 114 3 75 39 214
52 199 5 -5 23 -47 41 -94z m-4060 48 c0 -30 -25 -15 -28 17 -3 25 -2 27 12
16 9 -8 16 -22 16 -33z m40 -79 c0 -5 -4 -9 -10 -9 -5 0 -10 7 -10 16 0 8 5
12 10 9 6 -3 10 -10 10 -16z m3825 -113 c13 -58 14 -82 6 -112 -6 -22 -18 -84
-27 -139 -14 -92 -18 -103 -52 -139 -31 -32 -33 -37 -14 -31 12 3 22 2 22 -2
0 -12 -46 -75 -62 -85 -21 -13 -92 -8 -113 7 -18 15 -18 16 -2 44 17 30 14 61
-7 61 -6 0 -23 -20 -38 -45 -23 -38 -32 -45 -58 -45 -17 0 -40 -5 -52 -11 -51
-27 -30 29 37 101 28 30 69 76 90 103 21 26 40 46 42 43 2 -2 -1 -23 -7 -46
-6 -23 -9 -45 -6 -48 9 -9 34 29 42 63 3 17 14 46 24 65 21 41 77 195 96 263
7 26 16 52 20 59 13 21 42 -31 59 -106z m-3245 -4 c16 -50 132 -325 182 -433
22 -47 38 -95 36 -105 -2 -14 -19 -21 -72 -32 -38 -7 -72 -10 -76 -5 -7 9
-100 564 -100 601 0 33 16 19 30 -26z m2670 -203 c-12 -28 -30 -40 -30 -18 0
18 34 71 38 59 2 -6 -1 -24 -8 -41z m1040 -219 c15 -63 31 -140 35 -172 l6
-56 -51 -11 c-28 -6 -69 -11 -91 -11 l-41 0 7 63 c4 34 11 71 15 82 7 20 18
79 41 229 l13 80 19 -45 c10 -24 32 -96 47 -159z m-1009 19 c8 -16 8 -24 0
-32 -16 -16 -45 3 -49 32 -5 29 33 29 49 0z m-3145 -76 c-7 -7 -26 7 -26 19 0
6 6 6 15 -2 9 -7 13 -15 11 -17z"/>
<path d="M7022 5395 c0 -16 2 -22 5 -12 2 9 2 23 0 30 -3 6 -5 -1 -5 -18z"/>
<path d="M5996 5247 c3 -10 9 -15 12 -12 3 3 0 11 -7 18 -10 9 -11 8 -5 -6z"/>
<path d="M6051 5120 c0 -8 4 -24 9 -35 l9 -20 0 20 c0 11 -4 27 -9 35 -9 13
-10 13 -9 0z"/>
<path d="M6357 4659 c4 -13 8 -18 11 -10 2 7 -1 18 -6 23 -8 8 -9 4 -5 -13z"/>
<path d="M1562 2435 c0 -16 2 -22 5 -12 2 9 2 23 0 30 -3 6 -5 -1 -5 -18z"/>
<path d="M806 3279 c-27 -21 -53 -45 -58 -54 -13 -21 0 -97 15 -92 14 4 100
164 95 176 -2 4 -25 -9 -52 -30z"/>
<path d="M1145 3050 c3 -5 11 -10 16 -10 6 0 7 5 4 10 -3 6 -11 10 -16 10 -6
0 -7 -4 -4 -10z"/>
<path d="M2500 816 c0 -8 5 -18 10 -21 6 -3 10 1 10 9 0 8 -4 18 -10 21 -5 3
-10 -1 -10 -9z"/>
<path d="M4096 5415 c41 -85 74 -160 74 -167 0 -7 21 -58 46 -113 25 -55 70
-158 100 -230 30 -71 59 -134 63 -140 16 -22 53 -126 47 -133 -4 -3 -11 0 -16
8 -15 24 -13 -18 4 -76 8 -27 18 -71 22 -99 l7 -50 -22 19 c-14 13 -21 15 -21
6 0 -10 -3 -10 -15 0 -21 17 -20 -4 6 -110 71 -293 158 -730 159 -792 0 -49
-15 -30 -33 40 -10 37 -27 85 -37 107 -11 22 -19 47 -20 56 0 8 -4 19 -9 25
-5 5 -17 36 -27 69 -17 57 -18 58 -22 26 -7 -68 42 -286 59 -260 5 9 11 10 17
4 27 -30 70 -221 92 -410 12 -95 16 -108 30 -86 20 34 35 178 35 352 0 157 3
190 16 205 9 11 19 27 22 37 4 9 12 17 20 17 19 0 36 -82 48 -230 6 -69 13
-145 16 -170 4 -41 6 -43 19 -26 8 11 17 41 20 68 6 43 24 79 24 47 0 -15 40
28 81 87 29 43 30 45 8 34 -13 -7 -38 -23 -56 -36 -17 -13 -35 -24 -40 -24 -6
0 -9 245 -4 346 1 7 60 51 131 99 72 48 129 90 126 93 -3 2 -24 -3 -46 -12
-23 -9 -45 -14 -50 -11 -11 7 -59 -17 -113 -56 -22 -16 -45 -29 -51 -29 -7 0
-17 36 -25 88 -19 136 -40 228 -77 343 -19 58 -34 113 -34 122 0 38 -62 200
-114 301 -37 71 -56 117 -52 130 3 13 -3 29 -19 46 -13 14 -61 90 -106 170
-46 80 -88 151 -95 157 -7 7 -26 37 -43 66 -17 29 -40 62 -51 72 -11 10 -20
23 -20 28 0 11 -63 91 -99 125 -54 50 -48 18 25 -133z m507 -1329 c49 -135 77
-237 80 -292 1 -15 -43 -84 -53 -84 -10 0 -14 17 -35 150 -14 80 -65 345 -81
415 -4 17 -2 17 13 -4 10 -14 44 -97 76 -185z"/>
<path d="M496 4310 c4 -41 13 -88 20 -105 l13 -30 1 36 c0 48 -19 152 -31 164
-6 6 -7 -18 -3 -65z"/>
<path d="M5105 4040 c-3 -6 1 -7 9 -4 18 7 21 14 7 14 -6 0 -13 -4 -16 -10z"/>
<path d="M521 3834 c0 -11 3 -14 6 -6 3 7 2 16 -1 19 -3 4 -6 -2 -5 -13z"/>
<path d="M170 3521 c0 -5 5 -13 10 -16 6 -3 10 -2 10 4 0 5 -4 13 -10 16 -5 3
-10 2 -10 -4z"/>
<path d="M0 3357 c0 -12 9 -28 20 -35 11 -7 20 -17 20 -23 0 -5 5 -15 10 -22
27 -32 61 -90 57 -100 -3 -11 -77 79 -77 94 0 5 -7 9 -15 9 -12 0 -15 -13 -15
-55 0 -43 3 -55 15 -55 9 0 19 -9 23 -19 17 -46 172 -207 263 -275 31 -23 76
-59 101 -79 50 -41 58 -44 58 -22 0 8 -6 15 -14 15 -7 0 -25 15 -40 34 -14 19
-49 46 -78 60 -79 39 -269 242 -292 311 -3 11 28 -12 69 -52 82 -78 162 -130
178 -114 6 6 -5 19 -30 35 -21 14 -47 40 -58 58 -10 18 -35 49 -54 69 -48 49
-75 86 -102 142 -25 51 -39 60 -39 24z"/>
<path d="M4983 1559 c-34 -22 -43 -39 -19 -39 16 0 66 38 66 51 0 14 -12 11
-47 -12z"/>
<path d="M4425 1383 c-11 -3 -24 -10 -30 -15 -7 -7 10 -9 55 -4 76 7 107 27
40 25 -25 -1 -54 -3 -65 -6z"/>
<path d="M1388 1134 c-3 -5 -9 -70 -13 -144 -4 -85 -12 -143 -21 -157 -7 -11
-18 -43 -25 -70 -6 -26 -29 -112 -51 -190 -21 -78 -43 -163 -48 -190 -5 -26
-16 -73 -25 -103 -9 -30 -25 -98 -36 -150 -11 -52 -22 -103 -25 -112 -5 -17 9
-18 195 -18 l201 0 0 23 c0 22 -9 73 -36 217 -29 149 -42 248 -53 390 -7 80
-16 186 -21 235 -5 50 -12 122 -15 162 -5 74 -18 123 -27 107z"/>
<path d="M310 1038 c-6 -29 -15 -87 -21 -128 -5 -41 -16 -122 -24 -180 -20
-152 -27 -363 -19 -559 6 -149 9 -171 23 -171 11 0 29 28 53 81 21 44 41 78
46 75 5 -3 26 -40 45 -81 22 -46 42 -75 52 -75 8 0 15 2 15 4 0 2 -17 39 -39
82 -63 129 -100 219 -113 273 -12 53 -4 241 24 568 11 136 9 163 -16 163 -9 0
-18 -19 -26 -52z m5 -813 c0 -48 -4 -69 -17 -82 -17 -16 -18 -14 -18 59 0 87
7 115 24 98 6 -6 11 -40 11 -75z"/>
<path d="M886 118 c-7 -18 -16 -52 -20 -76 -6 -42 -6 -42 24 -42 l30 0 0 69
c0 79 -14 99 -34 49z"/>
</g>
</svg>
